<svg width="129" height="66" viewBox="0 0 129 66" fill="none" xmlns="http://www.w3.org/2000/svg">
<path fill-rule="evenodd" clip-rule="evenodd" d="M47.8352 13.2273C48.0549 13.4469 48.0549 13.8031 47.8352 14.0227L44.858 17L47.8352 19.9773C48.0549 20.1969 48.0549 20.5531 47.8352 20.7727C47.6156 20.9924 47.2594 20.9924 47.0398 20.7727L43.6648 17.3977C43.4451 17.1781 43.4451 16.8219 43.6648 16.6023L47.0398 13.2273C47.2594 13.0076 47.6156 13.0076 47.8352 13.2273Z" fill="#1C1C1C"/>
<path fill-rule="evenodd" clip-rule="evenodd" d="M52.3352 13.2273C52.5549 13.4469 52.5549 13.8031 52.3352 14.0227L49.358 17L52.3352 19.9773C52.5549 20.1969 52.5549 20.5531 52.3352 20.7727C52.1156 20.9924 51.7594 20.9924 51.5398 20.7727L48.1648 17.3977C47.9451 17.1781 47.9451 16.8219 48.1648 16.6023L51.5398 13.2273C51.7594 13.0076 52.1156 13.0076 52.3352 13.2273Z" fill="#1C1C1C"/>
<path fill-rule="evenodd" clip-rule="evenodd" d="M18.0852 13.2273C18.3049 13.4469 18.3049 13.8031 18.0852 14.0227L15.108 17L18.0852 19.9773C18.3049 20.1969 18.3049 20.5531 18.0852 20.7727C17.8656 20.9924 17.5094 20.9924 17.2898 20.7727L13.9148 17.3977C13.6951 17.1781 13.6951 16.8219 13.9148 16.6023L17.2898 13.2273C17.5094 13.0076 17.8656 13.0076 18.0852 13.2273Z" fill="#1C1C1C"/>
<path fill-rule="evenodd" clip-rule="evenodd" d="M47.8352 45.2273C48.0549 45.4469 48.0549 45.8031 47.8352 46.0227L44.858 49L47.8352 51.9773C48.0549 52.1969 48.0549 52.5531 47.8352 52.7727C47.6156 52.9924 47.2594 52.9924 47.0398 52.7727L43.6648 49.3977C43.4451 49.1781 43.4451 48.8219 43.6648 48.6023L47.0398 45.2273C47.2594 45.0076 47.6156 45.0076 47.8352 45.2273Z" fill="white"/>
<path fill-rule="evenodd" clip-rule="evenodd" d="M52.3352 45.2273C52.5549 45.4469 52.5549 45.8031 52.3352 46.0227L49.358 49L52.3352 51.9773C52.5549 52.1969 52.5549 52.5531 52.3352 52.7727C52.1156 52.9924 51.7594 52.9924 51.5398 52.7727L48.1648 49.3977C47.9451 49.1781 47.9451 48.8219 48.1648 48.6023L51.5398 45.2273C51.7594 45.0076 52.1156 45.0076 52.3352 45.2273Z" fill="white"/>
<path fill-rule="evenodd" clip-rule="evenodd" d="M18.0852 45.2273C18.3049 45.4469 18.3049 45.8031 18.0852 46.0227L15.108 49L18.0852 51.9773C18.3049 52.1969 18.3049 52.5531 18.0852 52.7727C17.8656 52.9924 17.5094 52.9924 17.2898 52.7727L13.9148 49.3977C13.6951 49.1781 13.6951 48.8219 13.9148 48.6023L17.2898 45.2273C17.5094 45.0076 17.8656 45.0076 18.0852 45.2273Z" fill="white"/>
<path fill-rule="evenodd" clip-rule="evenodd" d="M80.1763 52.782C79.9565 52.5625 79.9563 52.2063 80.1759 51.9865L83.1514 49.0075L80.1724 46.032C79.9526 45.8125 79.9524 45.4563 80.1719 45.2365C80.3915 45.0167 80.7476 45.0165 80.9674 45.236L84.3444 48.6091C84.5642 48.8286 84.5644 49.1848 84.3449 49.4046L80.9718 52.7815C80.7523 53.0013 80.3961 53.0015 80.1763 52.782Z" fill="#1C1C1C"/>
<path fill-rule="evenodd" clip-rule="evenodd" d="M75.6763 52.7846C75.4565 52.5651 75.4563 52.2089 75.6759 51.9891L78.6514 49.0101L75.6724 46.0346C75.4526 45.8151 75.4524 45.4589 75.6719 45.2391C75.8915 45.0193 76.2476 45.0191 76.4674 45.2387L79.8444 48.6117C80.0642 48.8312 80.0644 49.1874 79.8449 49.4072L76.4718 52.7842C76.2523 53.004 75.8961 53.0042 75.6763 52.7846Z" fill="#1C1C1C"/>
<path fill-rule="evenodd" clip-rule="evenodd" d="M109.926 52.7646C109.707 52.545 109.706 52.1889 109.926 51.9691L112.901 48.9901L109.922 46.0146C109.703 45.795 109.702 45.4389 109.922 45.2191C110.141 44.9993 110.498 44.9991 110.717 45.2186L114.094 48.5916C114.314 48.8112 114.314 49.1673 114.095 49.3871L110.722 52.7641C110.502 52.9839 110.146 52.9841 109.926 52.7646Z" fill="#1C1C1C"/>
<path fill-rule="evenodd" clip-rule="evenodd" d="M80.1576 20.782C79.9378 20.5625 79.9376 20.2063 80.1571 19.9865L83.1326 17.0075L80.1536 14.032C79.9338 13.8125 79.9336 13.4563 80.1532 13.2365C80.3727 13.0167 80.7289 13.0165 80.9487 13.2361L84.3256 16.6091C84.5454 16.8286 84.5456 17.1848 84.3261 17.4046L80.9531 20.7816C80.7335 21.0014 80.3774 21.0016 80.1576 20.782Z" fill="white"/>
<path fill-rule="evenodd" clip-rule="evenodd" d="M75.6576 20.7847C75.4378 20.5651 75.4376 20.209 75.6571 19.9892L78.6326 17.0102L75.6536 14.0347C75.4338 13.8151 75.4336 13.459 75.6532 13.2392C75.8727 13.0194 76.2289 13.0192 76.4487 13.2387L79.8256 16.6117C80.0454 16.8313 80.0456 17.1874 79.8261 17.4072L76.4531 20.7842C76.2335 21.004 75.8774 21.0042 75.6576 20.7847Z" fill="white"/>
<path fill-rule="evenodd" clip-rule="evenodd" d="M109.908 20.7646C109.688 20.545 109.688 20.1889 109.907 19.9691L112.883 16.9901L109.904 14.0146C109.684 13.795 109.684 13.4389 109.903 13.2191C110.123 12.9993 110.479 12.9991 110.699 13.2186L114.076 16.5916C114.295 16.8112 114.296 17.1673 114.076 17.3871L110.703 20.7641C110.484 20.9839 110.127 20.9841 109.908 20.7646Z" fill="white"/>
</svg>
