<svg width="10" height="8" viewBox="0 0 10 8" fill="none" xmlns="http://www.w3.org/2000/svg">
<path fill-rule="evenodd" clip-rule="evenodd" d="M4.83525 0.227252C5.05492 0.446922 5.05492 0.803078 4.83525 1.02275L1.858 4L4.83525 6.97725C5.05492 7.19692 5.05492 7.55308 4.83525 7.77275C4.61558 7.99242 4.25942 7.99242 4.03975 7.77275L0.664752 4.39775C0.445083 4.17808 0.445083 3.82192 0.664752 3.60225L4.03975 0.227252C4.25942 0.00758252 4.61558 0.00758252 4.83525 0.227252Z" fill="#1C1C1C"/>
<path fill-rule="evenodd" clip-rule="evenodd" d="M9.33525 0.227252C9.55492 0.446922 9.55492 0.803078 9.33525 1.02275L6.358 4L9.33525 6.97725C9.55492 7.19692 9.55492 7.55308 9.33525 7.77275C9.11558 7.99242 8.75942 7.99242 8.53975 7.77275L5.16475 4.39775C4.94508 4.17808 4.94508 3.82192 5.16475 3.60225L8.53975 0.227252C8.75942 0.00758252 9.11558 0.00758252 9.33525 0.227252Z" fill="#1C1C1C"/>
</svg>
