<svg width="18" height="18" viewBox="0 0 18 18" fill="none" xmlns="http://www.w3.org/2000/svg">
<path d="M4.47993 16.1428L5.49555 15.1272L2.87279 12.5045L1.85716 13.5201V14.7143H3.28573V16.1428H4.47993ZM10.317 5.7857C10.317 5.62201 10.2351 5.54017 10.0714 5.54017C9.99704 5.54017 9.9338 5.56621 9.88171 5.61829L3.83261 11.6674C3.78052 11.7195 3.75448 11.7827 3.75448 11.8571C3.75448 12.0208 3.83633 12.1027 4.00002 12.1027C4.07442 12.1027 4.13767 12.0766 4.18975 12.0245L10.2389 5.97543C10.2909 5.92335 10.317 5.86011 10.317 5.7857ZM9.7143 3.64284L14.3572 8.2857L5.07145 17.5714H0.428589V12.9286L9.7143 3.64284ZM17.3371 4.71427C17.3371 5.10862 17.1994 5.44344 16.9241 5.71874L15.0714 7.57141L10.4286 2.92856L12.2813 1.08704C12.5491 0.804302 12.8839 0.662933 13.2857 0.662933C13.6801 0.662933 14.0186 0.804302 14.3014 1.08704L16.9241 3.69865C17.1994 3.98883 17.3371 4.32737 17.3371 4.71427Z" fill="#495057"/>
</svg>
