<svg width="16" height="18" viewBox="0 0 16 18" fill="none" xmlns="http://www.w3.org/2000/svg">
<path d="M5.71429 6.78571V13.2143C5.71429 13.3185 5.6808 13.404 5.61384 13.471C5.54687 13.5379 5.46131 13.5714 5.35714 13.5714H4.64286C4.53869 13.5714 4.45312 13.5379 4.38616 13.471C4.3192 13.404 4.28571 13.3185 4.28571 13.2143V6.78571C4.28571 6.68155 4.3192 6.59598 4.38616 6.52902C4.45312 6.46205 4.53869 6.42857 4.64286 6.42857H5.35714C5.46131 6.42857 5.54687 6.46205 5.61384 6.52902C5.6808 6.59598 5.71429 6.68155 5.71429 6.78571ZM8.57143 6.78571V13.2143C8.57143 13.3185 8.53795 13.404 8.47098 13.471C8.40402 13.5379 8.31845 13.5714 8.21428 13.5714H7.5C7.39583 13.5714 7.31027 13.5379 7.2433 13.471C7.17634 13.404 7.14286 13.3185 7.14286 13.2143V6.78571C7.14286 6.68155 7.17634 6.59598 7.2433 6.52902C7.31027 6.46205 7.39583 6.42857 7.5 6.42857H8.21428C8.31845 6.42857 8.40402 6.46205 8.47098 6.52902C8.53795 6.59598 8.57143 6.68155 8.57143 6.78571ZM11.4286 6.78571V13.2143C11.4286 13.3185 11.3951 13.404 11.3281 13.471C11.2612 13.5379 11.1756 13.5714 11.0714 13.5714H10.3571C10.253 13.5714 10.1674 13.5379 10.1004 13.471C10.0335 13.404 10 13.3185 10 13.2143V6.78571C10 6.68155 10.0335 6.59598 10.1004 6.52902C10.1674 6.46205 10.253 6.42857 10.3571 6.42857H11.0714C11.1756 6.42857 11.2612 6.46205 11.3281 6.52902C11.3951 6.59598 11.4286 6.68155 11.4286 6.78571ZM12.8571 14.8661V4.28571H2.85714V14.8661C2.85714 15.0298 2.88318 15.1804 2.93527 15.3181C2.98735 15.4557 3.04129 15.5562 3.0971 15.6194C3.1529 15.6827 3.19196 15.7143 3.21429 15.7143H12.5C12.5223 15.7143 12.5614 15.6827 12.6172 15.6194C12.673 15.5562 12.7269 15.4557 12.779 15.3181C12.8311 15.1804 12.8571 15.0298 12.8571 14.8661ZM5.35714 2.85714H10.3571L9.82143 1.55134C9.76934 1.48437 9.7061 1.44345 9.6317 1.42857H6.09375C6.01934 1.44345 5.9561 1.48437 5.90402 1.55134L5.35714 2.85714ZM15.7143 3.21429V3.92857C15.7143 4.03274 15.6808 4.1183 15.6138 4.18527C15.5469 4.25223 15.4613 4.28571 15.3571 4.28571H14.2857V14.8661C14.2857 15.4836 14.1109 16.0175 13.7612 16.4676C13.4115 16.9178 12.9911 17.1429 12.5 17.1429H3.21429C2.72321 17.1429 2.30283 16.9252 1.95312 16.49C1.60342 16.0547 1.42857 15.5283 1.42857 14.9107V4.28571H0.357143C0.252976 4.28571 0.167411 4.25223 0.100446 4.18527C0.0334821 4.1183 0 4.03274 0 3.92857V3.21429C0 3.11012 0.0334821 3.02455 0.100446 2.95759C0.167411 2.89062 0.252976 2.85714 0.357143 2.85714H3.8058L4.58705 0.993304C4.69866 0.718006 4.89955 0.483631 5.18973 0.290179C5.47991 0.0967262 5.77381 0 6.07143 0H9.64286C9.94048 0 10.2344 0.0967262 10.5246 0.290179C10.8147 0.483631 11.0156 0.718006 11.1272 0.993304L11.9085 2.85714H15.3571C15.4613 2.85714 15.5469 2.89062 15.6138 2.95759C15.6808 3.02455 15.7143 3.11012 15.7143 3.21429Z" fill="#495057"/>
</svg>
